<svg xmlns="http://www.w3.org/2000/svg" viewBox="0 0 48 48" width="48" height="48" role="img" aria-label="Suger">
  <rect width="48" height="48" rx="10" fill="#6C47FF"/>
  <path d="M30.8 17.2c-1.5-1.6-3.9-2.6-6.6-2.6-4.6 0-7.9 2.5-7.9 6.1 0 3.4 2.6 5 6.7 5.9l2.1.5c2.4.5 3.4 1.1 3.4 2.4 0 1.5-1.5 2.5-3.9 2.5-2.3 0-4-0.9-5.2-2.4l-3.2 2.7c1.7 2.2 4.6 3.6 8.2 3.6 5 0 8.4-2.5 8.4-6.4 0-3.5-2.5-5.1-6.8-6l-2.1-.5c-2.2-.5-3.2-1-3.2-2.3 0-1.4 1.4-2.3 3.5-2.3 2 0 3.6.8 4.6 2.1l3-2.8z" fill="#fff"/>
</svg>
